<?xml version="1.0"?><svg xmlns="http://www.w3.org/2000/svg"><defs><symbol id="briefcase" viewBox="0 0 24 24"><rect x="2" y="7" width="20" height="14" rx="2" ry="2"/><path d="M16 21V5a2 2 0 00-2-2h-4a2 2 0 00-2 2v16"/></symbol><symbol id="calendar" viewBox="0 0 24 24"><rect x="3" y="4" width="18" height="18" rx="2" ry="2"/><line x1="16" y1="2" x2="16" y2="6"/><line x1="8" y1="2" x2="8" y2="6"/><line x1="3" y1="10" x2="21" y2="10"/></symbol><symbol id="clock" viewBox="0 0 24 24"><circle cx="12" cy="12" r="10"/><polyline points="12 6 12 12 16 14"/></symbol><symbol id="github" viewBox="0 0 24 24"><path d="M9 19c-5 1.5-5-2.5-7-3m14 6v-3.87a3.37 3.37 0 00-.94-2.61c3.14-.35 6.44-1.54 6.44-7A5.44 5.44 0 0020 4.77 5.07 5.07 0 0019.91 1S18.73.65 16 2.48a13.38 13.38 0 00-7 0C6.27.65 5.09 1 5.09 1A5.07 5.07 0 005 4.77a5.44 5.44 0 00-1.5 3.78c0 5.42 3.3 6.61 6.44 7A3.37 3.37 0 009 18.13V22"/></symbol><symbol id="lightbulb" viewBox="0 0 24 24"><line x1="9" y1="18" x2="15" y2="18"/><line x1="10" y1="22" x2="14" y2="22"/><path d="M15.09 14c.18-.98.65-1.74 1.41-2.5A4.65 4.65 0 0018 8 6 6 0 006 8c0 1 .23 2.23 1.5 3.5A4.61 4.61 0 018.91 14"/></symbol><symbol id="message-square" viewBox="0 0 24 24"><path d="M21 15a2 2 0 01-2 2H7l-4 4V5a2 2 0 012-2h14a2 2 0 012 2z"/></symbol><symbol id="moon" viewBox="0 0 24 24"><path d="M21 12.79A9 9 0 1111.21 3 7 7 0 0021 12.79z"/></symbol><symbol id="pen-tool" viewBox="0 0 24 24"><path d="M12 19l7-7 3 3-7 7-3-3z"/><path d="M18 13l-1.5-7.5L2 2l3.5 14.5L13 18l5-5z"/><path d="M2 2l7.586 7.586"/><circle cx="11" cy="11" r="2"/></symbol><symbol id="rss" viewBox="0 0 24 24"><path d="M4 11a9 9 0 019 9"/><path d="M4 4a16 16 0 0116 16"/><circle cx="5" cy="19" r="1"/></symbol><symbol id="sun" viewBox="0 0 24 24"><circle cx="12" cy="12" r="4"/><path d="M12 2v2"/><path d="M12 20v2"/><path d="M5 5l1.5 1.5"/><path d="M17.5 17.5L19 19"/><path d="M2 12h2"/><path d="M20 12h2"/><path d="M5 19l1.5-1.5"/><path d="M17.5 6.5L19 5"/></symbol><symbol id="twitter" viewBox="0 0 24 24"><path d="M23 3a10.9 10.9 0 01-3.14 1.53 4.48 4.48 0 00-7.86 3v1A10.66 10.66 0 013 4s-4 9 5 13a11.64 11.64 0 01-7 2c9 5 20 0 20-11.5a4.5 4.5 0 00-.08-.83A7.72 7.72 0 0023 3z"/></symbol><symbol id="user" viewBox="0 0 24 24"><path d="M20 21v-2a4 4 0 00-4-4H8a4 4 0 00-4 4v2"/><circle cx="12" cy="7" r="4"/></symbol></defs></svg>