<svg xmlns="http://www.w3.org/2000/svg"><symbol id="q" viewBox="0 0 64 64"><path d="m296.433 252.004.101-.124c-.344-.179-.59-.367-.738-.562a1.237 1.237 0 0 1-.223-.639c-.017-.256.092-.419.092-.419s.158.128.244.157a.741.741 0 0 0 .234.044c.16 0 .3-.06.419-.179.173-.173.236-.321.236-.493a.638.638 0 0 0-.217-.484.762.762 0 0 0-.539-.202c-.262 0-.498.113-.709.34a1.184 1.184 0 0 0-.316.838c0 .391.153.806.389 1.093.236.287.534.469 1.027.63zM298.474 251.986l.101-.123c-.344-.18-.59-.367-.738-.563a1.233 1.233 0 0 1-.223-.638.723.723 0 0 1 .092-.42s.158.128.244.158a.738.738 0 0 0 .234.043c.16 0 .3-.059.419-.178.173-.174.236-.322.236-.494a.636.636 0 0 0-.217-.483.758.758 0 0 0-.539-.202c-.262 0-.498.113-.709.339a1.184 1.184 0 0 0-.316.838c0 .391.153.806.389 1.093.236.287.534.47 1.027.63z" transform="translate(-4939.75 -4163.12) scale(16.744)"/></symbol></svg>
